<svg version="1.2" xmlns="http://www.w3.org/2000/svg" viewBox="0 0 132 47" width="182" height="65">
	<title>D3-logo-black-svg</title>
	<defs>
		<clipPath clipPathUnits="userSpaceOnUse" id="cp1">
			<path d="m0.49 0h131.03v47h-131.03z"/>
		</clipPath>
	</defs>
	<style>
		.s0 { fill: #000000 } 
	</style>
	<g id="Clip-Path" clip-path="url(#cp1)">
		<g id="Layer">
			<path id="Layer" class="s0" d="m30.6 39.3c0 5.2-4.9 7.7-9.2 7.7-2.7 0-4.7-1-5.8-2.7h0.1c0.4 0 0.7 0.2 0.9 0.4 0.8 0.9 2.4 1.7 4.7 1.7 4.5 0 6-3.1 6-7.2 0-6.7-5.4-6.7-7.4-6.7h-3.2v-0.6h3.1c4 0 6.6-1.1 6.6-5.5 0-2.7-1-5.1-4.1-5.1-2.1 0-3.7 1.1-4.2 1.9-0.2 0.3-0.5 0.4-0.9 0.4h-0.1c0.9-2 3.3-2.9 5.6-2.9 3.9 0 6.8 2.4 6.8 5.7 0 5-5.4 5.6-6.9 5.7v0.1c7.2 0.6 8 5.1 8 7.1z"/>
			<path id="Layer" class="s0" d="m11.6 31.9h2.5v0.6h-4.7c-7.3 0-8.9-4.9-8.9-8.2 0-0.7 0-8.2 8.5-8.3h2.6v-13.4c0-1.4 1.1-2.6 2.5-2.6v18.6c0 1.4-1.1 2.6-2.5 2.6v-4.6c-3.1 0-7.5 0.1-7.5 7.5 0 7.8 3.7 7.8 7.5 7.8z"/>
			<path id="Layer" fill-rule="evenodd" class="s0" d="m38.9 24.2c0 0.8-0.2 1.5-0.7 2-0.5 0.5-1.2 0.8-2 0.8h-1.9v-5.5h1.9c1.8 0 2.7 1.4 2.7 2.7q0 0 0 0zm-1.2 1.5c0.4-0.3 0.6-0.9 0.6-1.5 0-1-0.7-2.1-2.1-2.1h-1.3v4.2h1.3q0.9 0 1.5-0.6z"/>
			<path id="Layer" class="s0" d="m44.1 21.5v3.4c0 1.4-1.1 2.1-2.2 2.1-0.5 0-1-0.2-1.4-0.5q-0.7-0.6-0.7-1.6v-3.4h0.7v3.4q0 0.7 0.4 1.1c0.3 0.3 0.7 0.4 1 0.4 0.8 0 1.5-0.5 1.5-1.5v-3.4z"/>
			<path id="Layer" fill-rule="evenodd" class="s0" d="m49.6 25.5c0 0.9-0.7 1.4-2 1.4h-2.2v-5.4h2.2c0.9 0 1.8 0.4 1.8 1.6 0 0.4-0.2 0.8-0.6 1.1 0.5 0.2 0.8 0.7 0.8 1.3zm-3.6-3.4v1.8h1.7c0.5 0 1.1-0.2 1.1-0.8 0-0.7-0.6-1-1.2-1zm3 3.4c0-0.9-1-1-1.3-1h-1.7v1.8h1.6q1.4 0 1.4-0.8z"/>
			<path id="Layer" fill-rule="evenodd" class="s0" d="m55.5 27h-0.7l-0.5-1.3h-3l-0.5 1.3h-0.7l2.4-5.5h0.6zm-1.5-1.9l-1.3-2.7-1.2 2.7z"/>
			<path id="Layer" class="s0" d="m57.1 27h-0.7v-5.5h0.7z"/>
			<path id="Layer" fill-rule="evenodd" class="s0" d="m66.2 24.3c0 0.7-0.3 1.4-0.8 1.9-0.5 0.5-1.1 0.8-2 0.8h-1.8v-5.4h1.8c1.9 0 2.8 1.3 2.8 2.6q0 0 0 0.1zm-1.2 1.5c0.4-0.4 0.6-1 0.6-1.6-0.1-1-0.7-2-2.2-2h-1.2v4.2h1.2q1 0 1.6-0.6z"/>
			<path id="Layer" class="s0" d="m71.5 26.4v0.6h-4v-5.4h3.9v0.6h-3.2v1.8h3v0.6h-3v1.8z"/>
			<path id="Layer" class="s0" d="m76.8 25.5c0 1.5-1.7 1.6-2.2 1.6-0.8 0-1.8-0.3-2.2-1.2l-0.1-0.1 0.6-0.3v0.1c0.3 0.6 1.1 0.9 1.7 0.9 0.5 0 1.5-0.1 1.5-1 0.1-0.7-0.6-0.8-1.6-1-0.9-0.2-2-0.4-2-1.5q0-0.5 0.4-0.9c0.4-0.4 1-0.6 1.7-0.6 0.8 0 1.5 0.1 2 0.9l0.1 0.1-0.6 0.3v-0.1c-0.4-0.5-0.9-0.6-1.5-0.6-0.1 0-1.4 0-1.4 0.9 0 0.6 0.6 0.7 1.5 0.9 1 0.2 2.1 0.4 2.1 1.6z"/>
			<path id="Layer" class="s0" d="m78.8 27h-0.7v-5.4h0.7z"/>
			<path id="Layer" class="s0" d="m85 24v2.1 0.1q-0.9 0.9-2.1 0.9c-1.9 0-2.8-1.4-2.8-2.8 0-0.8 0.3-1.5 0.8-2 0.5-0.5 1.2-0.8 2-0.8 0.8 0 1.5 0.3 2 0.8l0.1 0.1-0.4 0.4-0.1-0.1c-0.4-0.4-1-0.6-1.6-0.6-0.6 0-1.2 0.2-1.5 0.6-0.4 0.4-0.7 1-0.7 1.6 0 1 0.6 2.1 2.2 2.1 0.6 0 1.1-0.1 1.5-0.5v-1.3h-1.8v-0.6h2.4z"/>
			<path id="Layer" class="s0" d="m90.6 21.6v5.4h-0.3l-3.3-4.1v4.1h-0.7v-5.4h0.4l3.3 4v-4z"/>
			<path id="Layer" fill-rule="evenodd" class="s0" d="m99.8 24.3c0 0.7-0.3 1.4-0.8 1.9-0.5 0.5-1.2 0.8-2 0.8h-1.9v-5.4h1.9c1.9 0 2.7 1.3 2.8 2.6q0 0 0 0.1zm-1.3 1.5c0.4-0.4 0.6-1 0.6-1.6 0-1-0.7-2-2.1-2h-1.2v4.2h1.2q1 0 1.5-0.6z"/>
			<path id="Layer" class="s0" d="m101.7 27h-0.6v-5.4h0.6z"/>
			<path id="Layer" class="s0" d="m107.5 25.5c0 1.5-1.6 1.6-2.2 1.6-0.7 0-1.8-0.3-2.2-1.2v-0.1l0.5-0.3 0.1 0.1c0.3 0.6 1 0.9 1.6 0.9 0.5 0 1.6-0.1 1.6-1 0-0.7-0.6-0.8-1.6-1-1-0.2-2-0.4-2-1.5q-0.1-0.5 0.3-0.9c0.4-0.4 1-0.6 1.8-0.6 0.8 0 1.4 0.1 2 0.9v0.1l-0.5 0.3-0.1-0.1c-0.3-0.5-0.9-0.6-1.5-0.6-0.1 0-1.4 0-1.4 0.9 0 0.6 0.6 0.7 1.5 0.9 1 0.2 2.1 0.4 2.1 1.6z"/>
			<path id="Layer" class="s0" d="m112.4 21.6v0.6h-1.9v4.8h-0.6v-4.8h-1.9v-0.6z"/>
			<path id="Layer" fill-rule="evenodd" class="s0" d="m117.9 27h-0.8l-1.8-2h-1.3v2h-0.6v-5.4h2.4c1.3 0 1.8 0.9 1.8 1.7 0 0.5-0.1 0.9-0.4 1.2q-0.4 0.4-1.1 0.5zm-3.9-4.8v2.2h1.7c1 0 1.2-0.6 1.2-1.1 0-0.3-0.1-0.6-0.3-0.8q-0.3-0.3-0.8-0.3z"/>
			<path id="Layer" class="s0" d="m119.9 27h-0.6v-5.4h0.6z"/>
			<path id="Layer" class="s0" d="m125.7 25.7l0.5 0.4-0.1 0.1c-0.6 0.6-1.3 0.8-2 0.8-1.9 0-2.8-1.3-2.8-2.7 0-0.8 0.3-1.5 0.8-2 0.5-0.5 1.2-0.8 2-0.8 0.7 0 1.4 0.3 2 0.8l0.1 0.1-0.5 0.4-0.1-0.1c-0.4-0.4-0.9-0.6-1.5-0.6-0.7 0-1.2 0.2-1.6 0.6-0.4 0.4-0.6 1-0.6 1.6 0 1 0.6 2.1 2.2 2.1 0.6 0 1.1-0.2 1.5-0.6z"/>
			<path id="Layer" class="s0" d="m131.5 21.6v0.6h-1.9v4.8h-0.6v-4.8h-1.9v-0.6z"/>
		</g>
	</g>
</svg>